<?xml version="1.0" standalone="no"?>
<!DOCTYPE svg PUBLIC "-//W3C//DTD SVG 20010904//EN"
 "http://www.w3.org/TR/2001/REC-SVG-20010904/DTD/svg10.dtd">
<svg version="1.0" xmlns="http://www.w3.org/2000/svg"
 width="70px" height="70px" viewBox="0 0 269.000000 269.000000"
 preserveAspectRatio="xMidYMid meet">

<g transform="translate(0.000000,269.000000) scale(0.100000,-0.100000)"
fill="#000000" stroke="none">
<path d="M834 2166 c-15 -11 -20 -30 -24 -92 l-5 -78 -79 -28 c-134 -48 -214
-96 -301 -183 -63 -62 -90 -99 -123 -165 -103 -208 -95 -339 34 -546 41 -67
162 -194 184 -194 6 0 10 -4 10 -10 0 -6 -52 -10 -135 -10 -122 0 -137 -2
-155 -20 -23 -23 -27 -93 -9 -134 17 -38 51 -45 207 -44 91 0 153 -4 172 -12
18 -7 43 -9 62 -5 18 4 48 6 66 6 71 -3 120 -1 185 5 37 3 67 2 67 -3 0 -4
-11 -26 -25 -48 -37 -60 -33 -100 12 -124 34 -17 52 -13 85 19 33 33 53 37 82
15 15 -12 54 -15 170 -15 117 -1 155 -4 170 -15 61 -46 157 33 175 145 l6 35
22 -37 c26 -45 58 -55 118 -38 l45 13 50 -47 c40 -37 56 -46 85 -46 72 0 119
82 80 138 -15 21 -15 22 24 38 42 17 68 58 57 92 -5 16 6 29 57 65 145 103
265 265 302 407 51 191 -39 429 -218 578 -70 57 -205 126 -308 155 l-84 25 -3
68 c-5 113 43 104 -537 104 -417 0 -504 -2 -521 -14z m1014 -28 c7 -7 12 -41
12 -84 l0 -71 68 -18 c168 -46 289 -111 387 -209 69 -70 122 -158 156 -261 20
-60 18 -199 -5 -265 -45 -135 -160 -278 -296 -370 -36 -24 -67 -45 -69 -47 -2
-1 1 -14 7 -29 17 -36 3 -56 -57 -79 -28 -11 -51 -24 -51 -30 0 -7 11 -22 25
-35 31 -29 31 -47 3 -77 -34 -36 -62 -29 -116 27 l-48 50 -57 -16 c-65 -19
-79 -13 -101 40 l-13 31 -99 -1 c-125 -1 -124 -1 -118 -19 5 -11 23 -15 74
-15 59 0 70 -3 75 -20 7 -21 -16 -73 -48 -107 -21 -24 -66 -30 -83 -13 -6 6
-76 10 -166 11 -118 0 -160 4 -174 14 -11 8 -35 15 -55 15 -29 0 -38 -5 -47
-26 -10 -21 -18 -25 -44 -22 -46 4 -46 24 1 104 l40 69 -27 7 c-37 11 -142 4
-169 -10 -26 -14 -55 -15 -69 -3 -19 18 -81 22 -94 6 -16 -19 -49 -19 -70 0
-14 13 -51 16 -186 18 l-169 2 -9 47 c-15 77 -15 77 210 76 190 -1 229 3 182
17 -89 27 -222 145 -294 261 -109 176 -117 310 -27 489 85 170 213 276 418
344 l90 30 3 78 c2 42 8 83 14 90 15 18 978 19 996 1z"/>
<path d="M883 2123 c-9 -3 -13 -30 -13 -85 0 -79 1 -80 23 -74 57 16 243 37
309 34 99 -4 69 -14 -87 -27 -215 -18 -450 -86 -556 -162 -23 -16 -29 -27 -25
-43 5 -19 4 -19 -8 -4 -15 20 -36 6 -36 -24 0 -11 -6 -18 -14 -16 -23 5 -92
-78 -129 -155 -73 -148 -72 -244 0 -390 58 -116 172 -236 272 -285 106 -53
141 -42 190 62 28 59 34 65 78 80 146 47 376 70 608 60 88 -4 176 -8 195 -8
47 -1 73 -28 94 -101 21 -68 68 -166 88 -182 68 -55 231 22 392 185 82 83 118
134 153 217 25 58 20 73 -11 31 -11 -17 -38 -49 -58 -72 -21 -22 -38 -46 -38
-53 0 -6 -4 -11 -10 -11 -5 0 -10 9 -10 20 0 38 -40 99 -104 161 -74 71 -106
95 -106 80 0 -6 4 -11 9 -11 6 0 36 -25 69 -55 98 -91 148 -215 108 -267 -20
-27 -26 -22 -26 20 0 72 -82 165 -225 254 -84 52 -90 58 -89 87 1 17 5 39 9
49 4 9 8 27 9 39 1 13 7 28 14 35 12 12 31 5 142 -57 l44 -25 28 32 c15 18 28
37 28 42 0 4 9 6 20 3 10 -3 18 -2 17 2 -3 9 36 71 45 71 12 0 10 -6 -17 -60
-20 -40 -22 -50 -10 -50 9 0 12 -6 8 -17 -5 -12 -2 -15 10 -10 10 4 20 0 25
-10 6 -11 11 -12 16 -4 4 6 2 11 -3 11 -16 0 -13 21 9 62 25 47 29 147 8 180
-46 68 -124 128 -241 183 -115 55 -321 101 -487 110 -133 8 -170 13 -170 26 0
13 147 4 292 -17 54 -8 100 -14 103 -14 3 0 5 35 3 78 l-3 77 -465 2 c-256 1
-471 -1 -477 -4z m927 -73 c0 -57 -1 -60 -22 -56 -71 15 -176 26 -273 28
l-110 3 -3 -333 -2 -333 -53 3 -52 3 -5 330 -5 330 -85 -3 c-47 -2 -129 -10
-182 -18 -137 -20 -128 -23 -128 39 0 30 3 57 7 60 3 4 210 7 460 7 l453 0 0
-60z m-203 -116 c-3 -3 -12 -4 -19 -1 -8 3 -5 6 6 6 11 1 17 -2 13 -5z m76
-11 c-7 -2 -19 -2 -25 0 -7 3 -2 5 12 5 14 0 19 -2 13 -5z m-493 -7 c0 -3 -4
-8 -10 -11 -5 -3 -10 -1 -10 4 0 6 5 11 10 11 6 0 10 -2 10 -4z m-30 -20 c0
-2 -7 -7 -16 -10 -8 -3 -12 -2 -9 4 6 10 25 14 25 6z m328 -13 c-10 -2 -28 -2
-40 0 -13 2 -5 4 17 4 22 1 32 -1 23 -4z m185 0 c-18 -2 -48 -2 -65 0 -18 2
-4 4 32 4 36 0 50 -2 33 -4z m170 -20 c-7 -2 -19 -2 -25 0 -7 3 -2 5 12 5 14
0 19 -2 13 -5z m-863 -23 c-8 -5 -19 -10 -25 -10 -5 0 -3 5 5 10 8 5 20 10 25
10 6 0 3 -5 -5 -10z m157 -25 c0 -9 -25 -22 -69 -35 -113 -34 -228 -103 -228
-137 0 -7 -4 -13 -10 -13 -24 0 9 59 51 89 44 32 144 81 167 81 10 0 22 4 28
9 7 8 25 14 55 20 3 0 6 -6 6 -14z m58 5 c-3 -5 -11 -10 -16 -10 -6 0 -7 5 -4
10 3 6 11 10 16 10 6 0 7 -4 4 -10z m780 -8 c-3 -3 -11 0 -18 7 -9 10 -8 11 6
5 10 -3 15 -9 12 -12z m-1402 -32 c3 -11 1 -20 -4 -20 -5 0 -9 9 -9 20 0 11 2
20 4 20 2 0 6 -9 9 -20z m194 -5 c-7 -14 -15 -25 -19 -25 -11 0 -10 8 2 31 16
28 30 23 17 -6z m403 -16 c-107 -27 -176 -56 -245 -102 -50 -33 -56 -35 -35
-13 45 49 254 134 330 135 14 0 -9 -9 -50 -20z m836 -16 c-4 -4 -11 -1 -16 7
-16 25 -11 35 7 17 9 -9 13 -20 9 -24z m188 -9 c-5 -19 -4 -25 5 -20 6 4 11 1
11 -8 0 -9 -7 -16 -15 -16 -8 0 -15 -4 -15 -10 0 -5 -5 -10 -11 -10 -8 0 -8 4
-1 13 6 7 12 28 14 45 1 18 6 32 10 32 5 0 5 -12 2 -26z m-1449 3 c21 -4 43
-42 34 -59 -7 -13 -6 -18 5 -18 13 0 28 -21 31 -45 1 -5 7 -22 13 -36 6 -15
10 -41 10 -58 -1 -16 5 -37 12 -46 11 -13 8 -15 -21 -16 -31 -1 -32 -2 -9 -8
22 -6 25 -13 28 -61 1 -29 8 -60 14 -68 9 -10 8 -16 -3 -23 -11 -7 -11 -9 0
-9 10 0 11 -3 2 -13 -6 -8 -8 -16 -5 -20 3 -3 1 -14 -5 -24 -8 -14 -11 -15
-12 -3 -1 8 -3 26 -4 40 -2 14 1 30 6 36 16 20 -45 37 -108 31 -32 -4 -66 -6
-75 -7 -14 0 -18 -8 -18 -32 0 -44 9 -56 45 -60 29 -3 30 -4 32 -63 2 -80 -5
-105 -29 -105 -10 0 -16 5 -13 10 3 6 -4 10 -17 10 -16 0 -37 18 -70 59 -27
32 -48 62 -48 67 0 4 -6 15 -14 23 -35 42 -63 220 -36 236 6 3 10 16 10 27 0
30 82 106 122 113 27 5 36 13 44 41 6 19 7 37 3 40 -5 3 -9 17 -9 31 0 24 2
25 38 18 20 -4 41 -7 47 -8z m-105 -40 c0 -42 -2 -44 -64 -85 -52 -34 -70 -53
-91 -97 -24 -48 -27 -64 -23 -129 3 -62 10 -86 43 -152 50 -98 125 -178 178
-188 20 -4 42 -4 47 -1 6 3 10 53 10 110 l0 104 -37 3 c-30 2 -38 7 -38 23 0
18 8 20 73 23 l72 3 0 -148 c0 -163 -8 -207 -46 -253 -43 -50 -103 -35 -221
54 -110 83 -214 249 -229 363 -19 157 76 334 211 388 33 14 72 25 88 25 25 0
27 -3 27 -43z m1512 -11 c-15 -24 -17 -36 -9 -39 7 -3 3 -5 -8 -5 -11 1 -29
-3 -40 -7 -16 -6 -14 -1 10 26 58 66 77 76 47 25z m79 -63 c-20 -39 -51 -74
-51 -56 0 5 11 24 25 43 14 18 28 50 32 69 7 33 8 34 11 9 2 -14 -6 -44 -17
-65z m-398 58 c8 -6 23 -8 33 -5 15 6 17 4 7 -6 -9 -10 -24 -10 -79 0 -47 9
-114 11 -218 7 -88 -4 -146 -3 -140 3 14 14 78 18 236 16 95 -2 152 -7 161
-15z m-123 -21 c0 -6 -16 -8 -36 -5 -52 6 -55 15 -6 15 23 0 42 -4 42 -10z
m326 -35 c75 -37 144 -90 144 -108 0 -7 -9 -23 -19 -36 l-18 -24 -59 36 c-69
43 -112 54 -137 35 -28 -21 -49 -130 -50 -263 -1 -196 38 -325 100 -325 28 0
79 24 110 52 l22 20 30 -22 c17 -12 31 -28 31 -36 0 -37 -201 -154 -264 -154
-45 0 -96 87 -138 238 -29 106 -28 261 2 397 24 109 45 158 82 191 47 44 77
43 164 -1z m260 -33 c-11 -10 -14 3 -7 38 l6 35 3 -33 c2 -19 1 -36 -2 -40z
m-1036 49 c0 -8 -37 -24 -52 -22 -5 1 -8 -4 -8 -10 0 -5 -5 -7 -10 -4 -15 9
-71 -5 -65 -16 4 -5 0 -6 -8 -4 -17 7 -87 -22 -87 -36 0 -5 -6 -9 -12 -8 -23
4 -62 -19 -107 -60 -24 -23 -46 -39 -49 -36 -10 10 93 100 143 124 130 62 255
97 255 72z m237 3 c36 -10 16 -24 -30 -23 -23 1 -32 4 -19 6 12 2 20 9 17 14
-7 10 1 11 32 3z m162 -10 c2 -2 -26 -4 -63 -4 -39 0 -65 4 -61 9 5 9 114 4
124 -5z m170 -6 c-5 -10 -12 -18 -15 -18 -3 0 -2 5 1 10 4 6 -19 11 -62 12
-62 1 -64 2 -23 7 25 3 59 6 77 7 27 0 30 -2 22 -18z m322 -11 c-13 -12 -20
-15 -15 -7 12 22 28 39 33 34 3 -3 -6 -15 -18 -27z m-568 -4 c-7 -2 -21 -2
-30 0 -10 3 -4 5 12 5 17 0 24 -2 18 -5z m115 0 c-10 -2 -28 -2 -40 0 -13 2
-5 4 17 4 22 1 32 -1 23 -4z m95 0 c-7 -2 -19 -2 -25 0 -7 3 -2 5 12 5 14 0
19 -2 13 -5z m387 -18 c-7 -8 -17 -15 -23 -15 -5 0 -2 9 8 20 21 23 35 19 15
-5z m-1160 11 c0 -3 -4 -8 -10 -11 -5 -3 -10 -1 -10 4 0 6 5 11 10 11 6 0 10
-2 10 -4z m503 -3 c3 -5 -17 -8 -44 -9 -26 -1 -46 3 -43 8 6 10 81 11 87 1z
m-343 -35 c0 -3 -14 -10 -32 -13 -18 -4 -39 -11 -48 -15 -8 -4 -28 -14 -45
-21 -47 -22 -96 -51 -92 -55 2 -3 24 7 48 20 44 24 217 86 241 86 7 0 3 -7 -9
-15 -12 -9 -26 -14 -30 -13 -14 4 -140 -41 -196 -70 -53 -28 -55 -28 -67 -9
-9 15 -9 22 1 31 9 8 10 8 5 -1 -11 -19 1 -16 42 12 20 14 42 25 49 25 7 0 13
5 13 11 0 5 5 7 10 4 6 -4 16 -2 23 3 7 5 24 12 40 16 16 4 27 13 27 24 0 15
2 15 10 2 5 -8 10 -18 10 -22z m60 11 c-38 -11 -50 -10 -50 2 0 5 3 8 8 6 4
-3 16 -1 27 3 11 4 24 5 30 2 5 -4 -1 -9 -15 -13z m560 0 c0 -5 -55 -9 -122
-9 -76 0 -118 4 -112 9 18 19 234 19 234 0z m-270 -10 c14 -1 0 -5 -30 -9 -30
-5 -59 -6 -64 -2 -14 8 25 22 49 17 11 -3 31 -5 45 -6z m123 -26 c-13 -2 -33
-2 -45 0 -13 2 -3 4 22 4 25 0 35 -2 23 -4z m130 0 c-7 -2 -21 -2 -30 0 -10 3
-4 5 12 5 17 0 24 -2 18 -5z m-528 -23 c-4 -6 -14 -9 -23 -5 -8 3 -18 2 -21
-3 -9 -13 -61 -24 -61 -13 0 6 19 15 43 21 23 6 47 12 52 14 14 5 18 -1 10
-14z m-120 -29 c-6 -5 -35 -19 -65 -31 -30 -12 -77 -35 -104 -51 -26 -17 -46
-24 -44 -17 6 17 137 87 166 87 12 1 22 6 22 11 0 6 8 10 17 10 11 0 13 -3 8
-9z m583 -18 c-32 -2 -84 -2 -115 0 -32 2 -6 3 57 3 63 0 89 -1 58 -3z m-200
-10 c-10 -2 -26 -2 -35 0 -10 3 -2 5 17 5 19 0 27 -2 18 -5z m242 -27 c0 -12
-31 -15 -162 -18 -90 -2 -165 -2 -167 -1 -23 15 77 29 237 31 73 2 92 -1 92
-12z m-830 -12 c-8 -8 -23 -20 -34 -25 -13 -7 -9 -1 9 15 34 29 43 33 25 10z
m823 -45 c-6 -21 -5 -21 -145 -19 -54 1 -106 -3 -116 -9 -26 -14 -62 -3 -62
19 0 16 14 19 118 25 64 3 124 7 132 8 8 1 29 1 46 -1 25 -3 31 -8 27 -23z
m-488 12 c3 -5 -21 -15 -52 -21 -90 -19 -210 -66 -280 -110 -64 -40 -81 -44
-40 -9 40 35 160 92 252 120 103 31 112 33 120 20z m-8 -69 c-23 -7 -53 -15
-67 -17 -60 -10 -162 -45 -237 -83 -71 -35 -82 -38 -88 -24 -3 9 -3 13 1 9 4
-4 21 4 38 16 42 32 127 70 211 96 115 34 138 38 162 27 22 -10 21 -12 -20
-24z m396 -9 c-13 -2 -35 -2 -50 0 -16 2 -5 4 22 4 28 0 40 -2 28 -4z m348
-29 c143 -87 219 -172 219 -245 0 -50 -15 -57 -50 -24 -18 17 -35 25 -45 21
-10 -3 -31 5 -52 22 -20 15 -61 41 -92 57 l-56 30 -3 88 c-2 62 0 87 9 87 6 0
38 -16 70 -36z m-564 20 c-3 -3 -12 -4 -19 -1 -8 3 -5 6 6 6 11 1 17 -2 13 -5z
m-60 -60 c-3 -3 -12 -4 -19 -1 -8 3 -5 6 6 6 11 1 17 -2 13 -5z m36 -46 c-13
-6 -23 -14 -23 -18 0 -5 -7 -10 -15 -14 -8 -3 -14 -2 -12 2 1 4 -2 8 -8 9 -5
0 -9 -3 -7 -8 3 -12 -15 -11 -23 1 -3 6 -25 10 -48 11 -23 0 -37 2 -32 5 11 4
139 21 170 22 18 1 18 0 -2 -10z m207 5 c0 -5 -31 -8 -69 -8 -38 0 -64 3 -58
7 16 10 127 10 127 1z m107 -1 c19 -12 12 -54 -7 -45 -8 3 -40 8 -70 9 -81 3
-80 3 -80 14 0 5 21 7 52 3 35 -4 49 -3 44 5 -3 6 3 12 16 15 13 2 25 5 28 5
3 1 10 -2 17 -6z m-252 -33 c5 -5 27 -9 49 -9 21 0 36 -3 33 -6 -3 -4 -30 -6
-58 -5 -50 1 -79 13 -79 33 0 10 39 1 55 -13z m-270 -3 c11 -11 8 -13 -23 -11
-60 4 -69 7 -37 15 44 11 45 11 60 -4z m85 -6 c0 -5 -7 -10 -15 -10 -8 0 -15
5 -15 10 0 6 7 10 15 10 8 0 15 -4 15 -10z m-176 -9 c3 -4 -6 -6 -21 -3 -18 3
-24 1 -19 -7 4 -6 1 -11 -8 -11 -9 0 -16 -6 -16 -12 0 -9 -3 -8 -10 2 -7 12
-12 12 -22 2 -14 -14 -38 -16 -38 -3 0 5 18 12 40 16 22 4 42 11 46 16 7 11
41 12 48 0z m139 -18 c-7 -2 -19 -2 -25 0 -7 3 -2 5 12 5 14 0 19 -2 13 -5z
m-76 -9 c-3 -3 -12 -4 -19 -1 -8 3 -5 6 6 6 11 1 17 -2 13 -5z m806 -25 c58
-30 107 -69 107 -85 0 -20 -12 -17 -51 12 -19 14 -48 31 -65 39 -17 7 -34 22
-37 34 -6 26 -6 26 46 0z m-1053 -9 c-8 -5 -18 -6 -24 -3 -5 4 -1 10 10 13 24
9 34 2 14 -10z m-36 -19 c3 -5 -3 -11 -14 -14 -22 -6 -37 8 -18 16 20 8 26 8
32 -2z"/>
<path d="M1320 1893 l0 -94 28 3 27 3 0 90 -1 90 -27 1 -27 1 0 -94z m37 31
c-3 -3 -12 -4 -19 -1 -8 3 -5 6 6 6 11 1 17 -2 13 -5z"/>
<path d="M1320 1731 c0 -62 5 -69 40 -53 10 5 15 22 15 57 0 47 -2 50 -27 53
-28 3 -28 3 -28 -57z"/>
<path d="M1343 1653 c-14 -3 -23 -12 -23 -23 0 -16 4 -18 22 -11 12 4 22 15
24 24 1 10 2 16 1 16 -1 -1 -12 -4 -24 -6z"/>
<path d="M1328 1598 c-9 -5 -6 -8 9 -8 12 0 24 4 27 8 7 11 -19 11 -36 0z"/>
<path d="M1340 1574 c-12 -4 -16 -20 -18 -64 -2 -49 0 -59 15 -63 17 -4 17 -5
1 -6 -10 0 -18 -7 -18 -14 0 -9 9 -12 28 -9 27 3 28 6 28 63 0 42 -4 59 -13
59 -7 0 -13 5 -13 10 0 6 5 10 10 10 6 0 10 5 10 10 0 10 -4 11 -30 4z"/>
<path d="M723 1673 c9 -2 23 -2 30 0 6 3 -1 5 -18 5 -16 0 -22 -2 -12 -5z"/>
<path d="M698 1463 c6 -2 18 -2 25 0 6 3 1 5 -13 5 -14 0 -19 -2 -12 -5z"/>
<path d="M762 1058 c-10 -39 -51 -57 -88 -38 -21 12 -28 10 -64 -14 -54 -36
-42 -51 15 -19 51 28 56 25 19 -12 -18 -18 -23 -30 -16 -37 6 -6 18 -1 34 15
13 13 48 35 76 48 47 22 52 27 52 56 0 42 -17 43 -28 1z"/>
<path d="M583 1020 c-18 -11 -33 -22 -33 -26 0 -4 60 28 79 43 16 12 -20 -1
-46 -17z"/>
<path d="M760 989 c0 -5 -4 -8 -8 -5 -9 5 -92 -50 -92 -61 0 -3 8 1 17 8 15
12 16 12 11 -2 -5 -12 0 -16 18 -16 28 0 49 21 38 38 -4 7 -3 10 2 6 5 -3 14
6 21 19 6 13 7 24 2 24 -5 0 -9 -5 -9 -11z"/>
<path d="M1920 1623 c-30 -11 -50 -36 -44 -55 4 -12 0 -18 -11 -18 -9 0 -14
-4 -10 -9 3 -6 -4 -25 -15 -43 -22 -37 -26 -84 -7 -91 7 -3 5 -6 -5 -6 -10 -1
-18 -7 -18 -15 0 -10 8 -12 32 -7 30 6 53 31 28 31 -7 0 -5 6 4 16 14 14 21
47 17 82 -1 6 3 12 9 12 5 0 10 4 10 10 0 5 -8 7 -17 4 -10 -2 -8 1 5 7 12 7
22 18 22 26 0 21 1 27 11 46 5 9 8 17 7 16 -2 0 -10 -3 -18 -6z m-13 -40 c-9
-2 -14 -9 -11 -15 4 -7 2 -8 -5 -4 -15 10 -4 26 17 25 15 -1 15 -2 -1 -6z
m-27 -83 c0 -5 -5 -10 -11 -10 -5 0 -7 5 -4 10 3 6 8 10 11 10 2 0 4 -4 4 -10z"/>
<path d="M1818 1353 c-20 -5 -24 -28 -8 -38 6 -3 10 -2 10 4 0 5 10 11 22 13
26 4 37 28 11 27 -10 -1 -26 -3 -35 -6z"/>
<path d="M1808 1283 c-18 -5 -25 -38 -10 -47 19 -11 67 11 70 32 3 22 -15 27
-60 15z"/>
<path d="M1812 1223 c-18 -4 -21 -10 -18 -30 7 -34 13 -38 31 -23 9 7 18 10
22 6 3 -3 1 -6 -6 -6 -7 0 -9 -4 -6 -10 3 -5 -3 -10 -14 -10 -17 0 -21 -6 -21
-31 0 -31 1 -31 38 -24 20 4 37 8 38 8 1 1 -1 30 -4 65 -5 65 -5 65 -60 55z"/>
<path d="M1835 1070 c-4 -6 -10 -8 -15 -5 -4 3 -6 -5 -2 -17 5 -21 5 -21 15 3
5 13 11 19 14 12 5 -13 33 -6 33 8 0 12 -37 11 -45 -1z"/>
<path d="M1856 1043 c-15 -4 -16 -7 -5 -14 11 -7 11 -9 -3 -9 -10 0 -18 -7
-18 -16 0 -8 4 -13 9 -10 5 4 7 -4 3 -16 -3 -13 -1 -19 5 -15 7 5 9 0 6 -13
-3 -13 1 -22 11 -26 11 -4 15 -13 11 -25 -4 -11 -2 -19 5 -19 6 0 9 -4 6 -9
-3 -4 3 -16 14 -26 20 -18 20 -17 20 13 0 18 -7 35 -16 40 -15 8 -15 10 0 15
21 8 20 46 -1 77 -10 14 -17 26 -15 28 1 1 2 9 2 17 0 16 -2 16 -34 8z"/>
<path d="M1967 1169 c7 -7 15 -10 18 -7 3 3 -2 9 -12 12 -14 6 -15 5 -6 -5z"/>
<path d="M1690 1180 c19 -13 30 -13 30 0 0 6 -10 10 -22 10 -19 0 -20 -2 -8
-10z"/>
<path d="M2352 1584 c-1 -17 -4 -47 -7 -65 l-5 -34 11 34 c5 18 8 47 6 65 l-4
31 -1 -31z"/>
<path d="M2370 1548 c0 -62 -54 -192 -77 -184 -11 4 -11 1 -2 -15 13 -25 9
-28 53 46 20 32 36 52 36 44 0 -17 -49 -111 -62 -120 -7 -4 -6 -9 1 -13 14 -9
69 89 77 137 4 20 11 37 16 37 6 0 7 -11 3 -27 -4 -16 -9 -39 -11 -52 -5 -25
-22 -62 -33 -71 -13 -11 -52 -92 -42 -85 8 4 10 -6 5 -37 l-6 -43 23 29 c13
16 32 36 42 45 9 8 17 29 17 46 1 28 1 29 15 11 13 -18 15 -18 21 -2 14 38 -3
170 -30 228 -14 31 -26 62 -26 67 0 6 -4 11 -10 11 -5 0 -10 -23 -10 -52z m-8
-290 c-7 -7 -12 -8 -12 -2 0 14 12 26 19 19 2 -3 -1 -11 -7 -17z"/>
<path d="M1205 1053 c-81 -6 -192 -25 -267 -45 l-78 -20 -34 -65 c-29 -53 -33
-70 -25 -86 10 -18 18 -19 75 -14 38 4 71 13 80 22 20 19 43 19 65 -1 11 -10
35 -16 61 -16 23 1 48 -4 55 -10 8 -6 14 -9 16 -7 1 2 7 13 13 24 15 28 79 33
106 8 14 -13 34 -17 66 -16 26 1 52 -3 59 -9 9 -7 21 -7 40 0 16 6 59 10 96 8
57 -2 70 1 78 16 12 22 57 24 65 3 7 -17 44 -21 44 -4 0 6 13 23 30 39 l30 28
-21 60 c-23 69 -16 65 -184 82 -94 9 -280 11 -370 3z m388 -37 c60 -8 112 -18
117 -22 4 -5 12 -23 18 -41 15 -44 -16 -72 -71 -66 -27 4 -43 0 -56 -11 -27
-25 -283 -26 -310 -2 -23 21 -110 22 -137 1 -10 -8 -37 -14 -59 -14 -22 0 -49
6 -59 14 -26 19 -80 19 -96 0 -8 -10 -30 -15 -61 -15 l-49 0 25 49 c18 37 33
52 57 60 167 53 465 74 681 47z"/>
<path d="M1769 861 l-23 -19 42 -55 c23 -31 38 -58 34 -60 -4 -3 -26 -10 -49
-16 -45 -12 -52 -25 -30 -55 12 -17 16 -17 71 -1 l58 17 52 -51 c55 -55 67
-59 86 -36 10 12 6 22 -24 55 -20 22 -36 44 -36 48 0 5 32 21 70 36 39 15 70
31 70 34 0 4 -7 16 -15 27 -14 17 -19 18 -48 6 -17 -7 -53 -19 -79 -28 -57
-19 -64 -15 -115 65 -18 28 -35 52 -37 52 -2 0 -14 -8 -27 -19z m65 -66 c20
-31 44 -59 53 -62 14 -6 72 10 157 43 13 5 17 3 14 -6 -2 -7 -26 -21 -53 -32
-28 -10 -61 -23 -74 -29 l-24 -10 41 -42 c39 -39 53 -67 35 -67 -5 0 -29 24
-54 52 l-46 53 -49 -14 c-64 -17 -69 -18 -71 -6 -1 6 15 16 35 23 20 7 43 14
50 17 9 3 0 22 -28 59 -22 31 -40 60 -40 66 0 23 19 7 54 -45z"/>
<path d="M757 824 c-13 -22 -20 -94 -8 -94 6 0 11 9 11 19 0 11 5 23 10 26 6
4 10 -5 10 -19 0 -14 5 -26 10 -26 15 0 12 58 -4 67 -7 4 -15 15 -18 23 -3 9
-7 10 -11 4z"/>
<path d="M980 819 c0 -5 5 -7 10 -4 6 3 10 8 10 11 0 2 -4 4 -10 4 -5 0 -10
-5 -10 -11z"/>
<path d="M1190 820 c0 -5 5 -10 10 -10 6 0 10 5 10 10 0 6 -4 10 -10 10 -5 0
-10 -4 -10 -10z"/>
<path d="M1230 820 c0 -5 5 -10 10 -10 6 0 10 5 10 10 0 6 -4 10 -10 10 -5 0
-10 -4 -10 -10z"/>
<path d="M288 794 c-12 -11 -10 -52 2 -59 6 -4 17 -1 25 5 11 9 15 9 15 1 0
-21 30 -11 42 14 6 14 15 25 20 25 4 0 8 -11 8 -25 0 -26 24 -35 33 -12 4 9 8
8 16 -3 10 -13 14 -12 31 9 11 13 20 31 20 40 0 12 -5 10 -20 -9 -16 -20 -20
-22 -20 -7 0 21 -19 22 -27 1 -5 -15 -7 -14 -17 2 -13 22 -37 25 -49 7 -12
-19 -27 -16 -27 5 -1 16 -1 16 -14 0 -16 -22 -24 -23 -28 -2 -2 9 -6 12 -10 8z"/>
<path d="M517 793 c-8 -13 1 -63 12 -63 4 0 12 5 19 12 9 9 12 9 12 0 0 -7 7
-12 15 -12 17 0 49 56 36 64 -5 3 -12 -2 -16 -12 -6 -16 -7 -16 -20 2 -13 17
-15 17 -21 3 -8 -22 -22 -22 -26 1 -2 12 -6 13 -11 5z"/>
<path d="M661 769 c-14 -40 -14 -69 -1 -69 6 0 10 4 10 8 0 5 12 14 26 20 20
10 25 18 22 40 -5 42 -42 43 -57 1z m39 -9 c0 -11 -4 -20 -10 -20 -5 0 -10 9
-10 20 0 11 5 20 10 20 6 0 10 -9 10 -20z"/>
<path d="M827 792 c-5 -7 -6 -25 -2 -39 4 -18 1 -29 -12 -39 -16 -12 -17 -13
-1 -14 21 0 68 60 68 86 0 17 -3 16 -19 -5 l-19 -25 -4 25 c-2 17 -5 20 -11
11z"/>
<path d="M904 785 c-4 -8 -1 -22 5 -29 10 -11 8 -15 -6 -19 -17 -4 -17 -4 0
-12 27 -11 45 10 29 35 -7 12 -8 20 -2 20 5 0 10 5 10 10 0 16 -30 12 -36 -5z"/>
<path d="M971 782 c-13 -25 -14 -52 -2 -52 9 0 24 60 17 67 -2 3 -9 -4 -15
-15z"/>
<path d="M1012 788 c-17 -17 -15 -55 5 -62 9 -4 21 -2 27 4 7 7 5 10 -7 10
-21 0 -23 28 -2 36 8 4 15 10 15 15 0 13 -24 11 -38 -3z"/>
<path d="M1080 790 c-12 -7 -12 -12 -2 -22 17 -17 15 -28 -5 -28 -12 0 -14 -3
-6 -11 13 -13 53 -2 53 15 0 6 -5 17 -12 24 -9 9 -9 12 0 12 7 0 12 5 12 10 0
13 -20 13 -40 0z"/>
<path d="M1180 776 c-12 -34 -13 -46 -1 -46 11 0 26 59 17 67 -3 3 -10 -6 -16
-21z"/>
<path d="M1220 776 c-12 -34 -13 -46 -1 -46 11 0 26 59 17 67 -3 3 -10 -6 -16
-21z"/>
<path d="M1264 785 c-4 -8 -1 -22 5 -29 10 -11 8 -15 -6 -19 -17 -4 -17 -4 0
-12 27 -11 45 10 29 35 -10 17 -10 20 3 20 8 0 15 5 15 10 0 16 -40 12 -46 -5z"/>
<path d="M1336 784 c-19 -19 -20 -36 -4 -52 15 -15 38 -16 38 -2 0 6 -7 10
-15 10 -22 0 -18 31 5 37 11 3 20 9 20 14 0 15 -27 10 -44 -7z"/>
<path d="M1440 786 c-20 -25 -9 -61 19 -61 19 0 27 7 32 29 5 16 6 33 3 38 -8
13 -40 9 -54 -6z m26 -43 c-11 -11 -19 6 -11 24 8 17 8 17 12 0 3 -10 2 -21
-1 -24z"/>
<path d="M1528 789 c-22 -12 -23 -42 -3 -59 12 -10 19 -10 27 -2 9 9 8 12 -5
12 -24 0 -21 31 3 37 22 6 28 23 8 23 -7 0 -21 -5 -30 -11z"/>
<path d="M1626 793 c-9 -10 -7 -65 3 -59 11 7 20 55 11 61 -4 2 -10 2 -14 -2z"/>
<path d="M1671 786 c-7 -8 -11 -27 -9 -43 3 -22 6 -24 11 -10 4 9 10 25 14 35
5 13 8 11 11 -10 5 -39 24 -35 20 4 -3 36 -27 48 -47 24z"/>
<path d="M1750 755 c0 -8 7 -15 15 -15 9 0 12 6 9 15 -4 8 -10 15 -15 15 -5 0
-9 -7 -9 -15z"/>
<path d="M616 741 c-4 -5 -2 -12 3 -15 5 -4 12 -2 15 3 4 5 2 12 -3 15 -5 4
-12 2 -15 -3z"/>
<path d="M1135 741 c-3 -5 -1 -12 5 -16 5 -3 10 1 10 9 0 18 -6 21 -15 7z"/>
<path d="M1390 729 c0 -5 5 -7 10 -4 6 3 10 8 10 11 0 2 -4 4 -10 4 -5 0 -10
-5 -10 -11z"/>
<path d="M1580 729 c0 -5 5 -7 10 -4 6 3 10 8 10 11 0 2 -4 4 -10 4 -5 0 -10
-5 -10 -11z"/>
<path d="M1120 668 c0 -21 5 -28 19 -28 11 0 23 5 26 10 3 6 19 10 34 10 26 0
51 16 51 33 0 4 -29 7 -65 5 -64 -2 -65 -3 -65 -30z"/>
<path d="M1310 692 c0 -31 83 -45 94 -17 3 8 0 15 -7 16 -7 0 -29 2 -49 4 -21
2 -38 1 -38 -3z"/>
<path d="M1049 628 c-12 -24 -29 -53 -37 -65 -8 -14 -10 -23 -4 -23 9 0 82
112 82 126 0 2 -4 4 -10 4 -5 0 -19 -19 -31 -42z"/>
<path d="M1261 633 c-16 -56 -15 -78 3 -64 10 8 16 9 21 1 11 -18 27 -11 20
10 -4 12 -1 28 7 37 11 14 10 15 -11 8 -22 -7 -23 -5 -17 19 10 41 -12 30 -23
-11z"/>
<path d="M1424 645 c-10 -26 -9 -70 1 -70 6 0 9 4 7 8 -1 5 2 24 7 43 9 34 -3
50 -15 19z"/>
<path d="M1188 629 c-11 -6 -18 -22 -18 -39 0 -27 3 -30 30 -30 27 0 30 3 30
30 0 17 0 33 1 38 0 12 -24 13 -43 1z m18 -46 c-11 -11 -19 6 -11 24 8 17 8
17 12 0 3 -10 2 -21 -1 -24z"/>
<path d="M1482 633 c-7 -2 -17 -14 -23 -25 -13 -24 4 -48 34 -48 16 0 18 3 9
12 -9 9 -7 14 5 23 10 7 14 19 10 29 -7 16 -13 18 -35 9z m18 -23 c0 -5 -4
-10 -10 -10 -5 0 -10 5 -10 10 0 6 5 10 10 10 6 0 10 -4 10 -10z"/>
<path d="M1337 623 c-4 -3 -7 -19 -7 -35 0 -24 4 -28 30 -28 23 0 30 5 30 19
0 11 3 26 6 35 3 9 1 16 -5 16 -6 0 -13 -11 -17 -25 -3 -14 -11 -25 -16 -25
-6 0 -8 11 -6 25 5 24 -2 32 -15 18z"/>
<path d="M1535 596 c5 -27 3 -36 -12 -45 -16 -10 -15 -11 7 -9 17 2 32 16 48
46 13 23 19 42 13 42 -5 0 -14 -7 -19 -16 -8 -15 -10 -15 -15 0 -12 31 -28 17
-22 -18z"/>
<path d="M1096 612 c-8 -13 36 -24 48 -12 7 7 6 10 -1 10 -6 0 -18 3 -26 6 -8
3 -18 1 -21 -4z"/>
</g>
</svg>
